<svg width="24" height="25" viewBox="0 0 24 25" fill="none" xmlns="http://www.w3.org/2000/svg">
<path d="M9 22.5C8.73478 22.5 8.48043 22.3946 8.29289 22.2071C8.10536 22.0196 8 21.7652 8 21.5V18.5H4C3.46957 18.5 2.96086 18.2893 2.58579 17.9142C2.21071 17.5391 2 17.0304 2 16.5V4.5C2 3.96957 2.21071 3.46086 2.58579 3.08579C2.96086 2.71071 3.46957 2.5 4 2.5H20C20.5304 2.5 21.0391 2.71071 21.4142 3.08579C21.7893 3.46086 22 3.96957 22 4.5V16.5C22 17.0304 21.7893 17.5391 21.4142 17.9142C21.0391 18.2893 20.5304 18.5 20 18.5H13.9L10.2 22.21C10 22.4 9.75 22.5 9.5 22.5H9Z" fill="white" fill-opacity="0.8"/>
</svg>
