<svg width="41" height="40" viewBox="0 0 41 40" fill="none" xmlns="http://www.w3.org/2000/svg">
<path d="M30.4091 11.7727V14.0909C30.4091 14.303 30.3409 14.4773 30.2045 14.6136C30.0682 14.75 29.8939 14.8182 29.6818 14.8182H25.8636C25.5152 17 24.5379 18.7727 22.9318 20.1364C21.3258 21.5 19.2348 22.3333 16.6591 22.6364C19.1894 25.3333 22.6667 29.3939 27.0909 34.8182C27.303 35.0606 27.3333 35.3182 27.1818 35.5909C27.0606 35.8636 26.8409 36 26.5227 36H22.0909C21.8485 36 21.6591 35.9091 21.5227 35.7273C16.8864 30.1667 13.1136 25.8409 10.2045 22.75C10.0682 22.6136 10 22.447 10 22.25V19.3636C10 19.1667 10.072 18.9962 10.2159 18.8523C10.3598 18.7083 10.5303 18.6364 10.7273 18.6364H13.2727C15.2727 18.6364 16.8826 18.3106 18.1023 17.6591C19.322 17.0076 20.0985 16.0606 20.4318 14.8182H10.7273C10.5152 14.8182 10.3409 14.75 10.2045 14.6136C10.0682 14.4773 10 14.303 10 14.0909V11.7727C10 11.5606 10.0682 11.3864 10.2045 11.25C10.3409 11.1136 10.5152 11.0455 10.7273 11.0455H20.1136C19.25 9.33333 17.2197 8.47727 14.0227 8.47727H10.7273C10.5303 8.47727 10.3598 8.4053 10.2159 8.26136C10.072 8.11742 10 7.94697 10 7.75V4.72727C10 4.51515 10.0682 4.34091 10.2045 4.20455C10.3409 4.06818 10.5152 4 10.7273 4H29.6364C29.8485 4 30.0227 4.06818 30.1591 4.20455C30.2955 4.34091 30.3636 4.51515 30.3636 4.72727V7.04545C30.3636 7.25758 30.2955 7.43182 30.1591 7.56818C30.0227 7.70455 29.8485 7.77273 29.6364 7.77273H24.3409C25.053 8.69697 25.5379 9.78788 25.7955 11.0455H29.6818C29.8939 11.0455 30.0682 11.1136 30.2045 11.25C30.3409 11.3864 30.4091 11.5606 30.4091 11.7727Z" fill="white"/>
</svg>
