<svg width="24" height="24" viewBox="0 0 24 24" fill="none" xmlns="http://www.w3.org/2000/svg">
<path d="M9 10C9.01036 9.20758 9.32976 8.45052 9.89014 7.89014C10.4505 7.32976 11.2076 7.01037 12 7.00001C12.7924 7.01037 13.5495 7.32976 14.1099 7.89014C14.6702 8.45052 14.9896 9.20758 15 10C14.9896 10.7924 14.6702 11.5495 14.1099 12.1099C13.5495 12.6702 12.7924 12.9896 12 13C11.2076 12.9896 10.4505 12.6702 9.89014 12.1099C9.32976 11.5495 9.01036 10.7924 9 10ZM12 19L16 20V16.92C14.7937 17.6465 13.408 18.0206 12 18C10.592 18.0206 9.20632 17.6465 8 16.92V20M12 4.00001C11.212 3.98563 10.4293 4.13257 9.70017 4.4318C8.97102 4.73102 8.31076 5.17622 7.76 5.74001C7.19011 6.29137 6.73977 6.95411 6.43699 7.68698C6.13421 8.41985 5.98546 9.20718 6 10C5.98958 10.7878 6.14033 11.5694 6.44299 12.2968C6.74565 13.0243 7.19383 13.6821 7.76 14.23C8.3082 14.7992 8.96729 15.25 9.69657 15.5544C10.4258 15.8588 11.2098 16.0105 12 16C12.7902 16.0105 13.5742 15.8588 14.3034 15.5544C15.0327 15.25 15.6918 14.7992 16.24 14.23C16.8062 13.6821 17.2543 13.0243 17.557 12.2968C17.8597 11.5694 18.0104 10.7878 18 10C18.0145 9.20718 17.8658 8.41985 17.563 7.68698C17.2602 6.95411 16.8099 6.29137 16.24 5.74001C15.6892 5.17622 15.029 4.73102 14.2998 4.4318C13.5707 4.13257 12.788 3.98563 12 4.00001ZM20 10C19.9787 10.9599 19.7857 11.9082 19.43 12.8C19.1096 13.7074 18.6248 14.5481 18 15.28V23L12 21L6 23V15.28C4.70569 13.8265 3.9935 11.9463 4 10C3.98237 8.95059 4.18004 7.9087 4.58078 6.93865C4.98153 5.96861 5.57685 5.091 6.33 4.36001C7.0637 3.6001 7.94536 2.99864 8.92056 2.59274C9.89576 2.18683 10.9438 1.98511 12 2.00001C13.0562 1.98511 14.1042 2.18683 15.0794 2.59274C16.0546 2.99864 16.9363 3.6001 17.67 4.36001C18.4231 5.091 19.0185 5.96861 19.4192 6.93865C19.82 7.9087 20.0176 8.95059 20 10Z" fill="white"/>
</svg>
